<?xml version="1.0" encoding="UTF-8" standalone="no"?>
<!-- Created with Inkscape (http://www.inkscape.org/) -->

<svg
   xmlns:dc="http://purl.org/dc/elements/1.1/"
   xmlns:cc="http://creativecommons.org/ns#"
   xmlns:rdf="http://www.w3.org/1999/02/22-rdf-syntax-ns#"
   xmlns:svg="http://www.w3.org/2000/svg"
   xmlns="http://www.w3.org/2000/svg"
   xmlns:sodipodi="http://sodipodi.sourceforge.net/DTD/sodipodi-0.dtd"
   xmlns:inkscape="http://www.inkscape.org/namespaces/inkscape"
   width="210mm"
   height="297mm"
   viewBox="0 0 210 297"
   version="1.1"
   id="svg8"
   inkscape:version="0.92.1 r15371"
   sodipodi:docname="colava_bw.svg"
   inkscape:export-filename="/home/drcode/temp/logo_color.png"
   inkscape:export-xdpi="73.809998"
   inkscape:export-ydpi="73.809998">
  <defs
     id="defs2" />
  <sodipodi:namedview
     id="base"
     pagecolor="#ffffff"
     bordercolor="#666666"
     borderopacity="1.0"
     inkscape:pageopacity="0.0"
     inkscape:pageshadow="2"
     inkscape:zoom="2.8443984"
     inkscape:cx="442.5"
     inkscape:cy="645.72725"
     inkscape:document-units="mm"
     inkscape:current-layer="layer1"
     showgrid="false"
     inkscape:window-width="4800"
     inkscape:window-height="3136"
     inkscape:window-x="0"
     inkscape:window-y="32"
     inkscape:window-maximized="1" />
  <metadata
     id="metadata5">
    <rdf:RDF>
      <cc:Work
         rdf:about="">
        <dc:format>image/svg+xml</dc:format>
        <dc:type
           rdf:resource="http://purl.org/dc/dcmitype/StillImage" />
        <dc:title></dc:title>
      </cc:Work>
    </rdf:RDF>
  </metadata>
  <g
     inkscape:label="Layer 1"
     inkscape:groupmode="layer"
     id="layer1">
    <rect
       style="opacity:1;vector-effect:none;fill:#999999;fill-opacity:1;stroke:none;stroke-width:0.22096226px;stroke-linecap:butt;stroke-linejoin:miter;stroke-miterlimit:4;stroke-dasharray:none;stroke-dashoffset:0;stroke-opacity:1"
       id="rect4563"
       width="155.98424"
       height="118.78344"
       x="29.3564"
       y="64.974892" />
    <path
       style="color:#000000;font-style:normal;font-variant:normal;font-weight:normal;font-stretch:normal;font-size:medium;line-height:normal;font-family:sans-serif;font-variant-ligatures:normal;font-variant-position:normal;font-variant-caps:normal;font-variant-numeric:normal;font-variant-alternates:normal;font-feature-settings:normal;text-indent:0;text-align:start;text-decoration:none;text-decoration-line:none;text-decoration-style:solid;text-decoration-color:#000000;letter-spacing:normal;word-spacing:normal;text-transform:none;writing-mode:lr-tb;direction:ltr;text-orientation:mixed;dominant-baseline:auto;baseline-shift:baseline;text-anchor:start;white-space:normal;shape-padding:0;clip-rule:nonzero;display:inline;overflow:visible;visibility:visible;opacity:1;isolation:auto;mix-blend-mode:normal;color-interpolation:sRGB;color-interpolation-filters:linearRGB;solid-color:#000000;solid-opacity:1;vector-effect:none;fill:#f9f9f9;fill-opacity:1;fill-rule:nonzero;stroke:none;stroke-width:0.99999994px;stroke-linecap:butt;stroke-linejoin:miter;stroke-miterlimit:4;stroke-dasharray:none;stroke-dashoffset:0;stroke-opacity:1;color-rendering:auto;image-rendering:auto;shape-rendering:auto;text-rendering:auto;enable-background:accumulate"
       d="m 395.89453,306.61133 c -62.40701,0.37825 -120.91479,9.36197 -151.38476,21.45312 -11.11425,4.41038 -20.91058,9.53787 -29.38672,15.25977 l -16.50782,13.5664 c -20.31726,20.57026 -27.08386,46.33219 -18.77539,74.11329 9.63322,32.21062 36.49501,41.211 49.5,43.70898 l -5.14648,2.2168 c -39.31785,19.13166 -67.28886,78.19741 -33.41602,145.71875 21.30835,42.47554 40.97071,71.05859 40.97071,71.05859 l 11.30859,-0.44336 -2.79883,-4.18555 c 0,0 -19.45501,-29.03173 -40.48242,-70.94726 -32.02213,-63.83218 -5.03232,-115.6752 28.82617,-132.15039 l 4.62891,-2.08399 -3.83985,-9.20507 -0.0254,0.0117 3.875,9.21485 c -5.92525,16.58786 -15.2946,54.85712 11.54688,82.03711 27.48396,27.83053 98.34537,17.1855 152.79883,-7.92578 l 19.80273,-10.20899 c 7.47379,-4.30221 14.40413,-8.86238 20.56836,-13.60547 38.25262,-29.43364 53.62927,-68.94156 77.42578,-98.13281 l 13.75,-14.5625 c 5.02865,-4.49138 10.51149,-8.53169 16.64258,-11.98828 46.10838,-25.99499 100.92409,-15.71995 111.57813,-9.85937 0,0 -24.36526,-46.70451 -120.12696,-75.74024 -34.47278,-10.45243 -75.03817,-15.60868 -115.37109,-16.95117 l -19.96875,-0.35938 c -1.99834,-0.006 -4.001,-0.0218 -5.99219,-0.01 z"
       transform="scale(0.26458333)"
       id="path4505"
       inkscape:connector-curvature="0"
       sodipodi:nodetypes="ssccsccscccscccccsccsccscsccs" />
    <g
       aria-label="colava"
       transform="scale(1.0146412,0.98557009)"
       style="font-style:normal;font-weight:normal;font-size:34.32437515px;line-height:1.25;font-family:sans-serif;letter-spacing:0px;word-spacing:0px;opacity:1;vector-effect:none;fill:#999999;fill-opacity:1;stroke:none;stroke-width:0.22497475px;stroke-linecap:butt;stroke-linejoin:miter;stroke-miterlimit:4;stroke-dasharray:none;stroke-dashoffset:0;stroke-opacity:1"
       id="text4494">
      <path
         d="m 62.546547,107.54362 q -3.638384,0 -6.075414,-2.09378 -2.402707,-2.09379 -2.402707,-6.761907 0,-4.805412 2.368382,-6.933523 2.402707,-2.162436 6.075415,-2.162436 2.780274,0 5.285954,1.029731 v 3.226491 q -2.608653,-1.09838 -4.771089,-1.09838 -2.711625,0 -4.050276,1.372975 -1.338651,1.338651 -1.338651,4.290547 0,3.089192 1.304327,4.530822 1.304326,1.4073 4.187574,1.4073 2.334057,0 4.702439,-1.13271 v 3.22649 q -2.471355,1.09838 -5.285954,1.09838 z"
         style="font-style:normal;font-variant:normal;font-weight:500;font-stretch:normal;font-family:'Maven Pro';-inkscape-font-specification:'Maven Pro Medium';vector-effect:none;fill:#999999;fill-opacity:1;stroke:none;stroke-width:0.22497475px;stroke-linecap:butt;stroke-linejoin:miter;stroke-miterlimit:4;stroke-dasharray:none;stroke-dashoffset:0;stroke-opacity:1"
         id="path4516" />
      <path
         d="m 79.368709,107.71524 q -4.118925,0 -6.212711,-2.33405 -2.059463,-2.33406 -2.059463,-6.79623 0,-9.02731 8.23785,-9.02731 4.15325,0 6.247036,2.334057 2.093787,2.299733 2.093787,6.693253 0,4.39352 -2.162435,6.7619 -2.162436,2.36838 -6.144064,2.36838 z m -0.03432,-3.05487 q 4.736764,0 4.736764,-6.07541 0,-3.020545 -1.132704,-4.496493 -1.132705,-1.510272 -3.60406,-1.510272 -2.505679,0 -3.604059,1.544596 -1.064056,1.510273 -1.064056,4.462169 0,2.9519 1.09838,4.53082 1.132704,1.54459 3.569735,1.54459 z"
         style="font-style:normal;font-variant:normal;font-weight:500;font-stretch:normal;font-family:'Maven Pro';-inkscape-font-specification:'Maven Pro Medium';vector-effect:none;fill:#999999;fill-opacity:1;stroke:none;stroke-width:0.22497475px;stroke-linecap:butt;stroke-linejoin:miter;stroke-miterlimit:4;stroke-dasharray:none;stroke-dashoffset:0;stroke-opacity:1"
         id="path4518" />
      <path
         d="M 91.832747,107.20038 V 81.300254 h 3.569735 v 25.900126 z"
         style="font-style:normal;font-variant:normal;font-weight:500;font-stretch:normal;font-family:'Maven Pro';-inkscape-font-specification:'Maven Pro Medium';vector-effect:none;fill:#999999;fill-opacity:1;stroke:none;stroke-width:0.22497475px;stroke-linecap:butt;stroke-linejoin:miter;stroke-miterlimit:4;stroke-dasharray:none;stroke-dashoffset:0;stroke-opacity:1"
         id="path4520"
         inkscape:connector-curvature="0"
         sodipodi:nodetypes="ccccc" />
      <path
         d="m 107.92927,89.591974 q 2.8146,0 4.77109,1.372975 1.99081,1.338651 1.95649,4.359196 v 8.237845 q 0,2.33406 -2.05947,3.26082 -2.05946,0.89243 -5.86946,0.89243 -3.05487,0 -5.04569,-1.27 -1.990811,-1.27 -1.990811,-4.25622 0,-2.814599 1.613241,-4.221898 1.64757,-1.4073 4.6338,-1.4073 3.08919,0 5.14865,1.235678 v -1.64757 q 0,-3.501087 -4.2219,-3.501087 -1.51027,0 -3.02054,0.480542 -1.51027,0.446216 -2.50568,1.270001 v -3.363788 q 0.96108,-0.617839 2.78027,-1.029732 1.85352,-0.411892 3.81001,-0.411892 z m -0.78946,15.308676 q 2.16243,0 3.05487,-0.30892 0.89243,-0.30892 0.89243,-1.23568 v -3.32947 q -1.75054,-0.755132 -3.84433,-0.755132 -1.95649,0 -2.98622,0.686487 -0.99541,0.686485 -0.99541,2.059465 0,1.44162 1.13271,2.16243 1.16703,0.72082 2.74595,0.72082 z"
         style="font-style:normal;font-variant:normal;font-weight:500;font-stretch:normal;font-family:'Maven Pro';-inkscape-font-specification:'Maven Pro Medium';vector-effect:none;fill:#999999;fill-opacity:1;stroke:none;stroke-width:0.22497475px;stroke-linecap:butt;stroke-linejoin:miter;stroke-miterlimit:4;stroke-dasharray:none;stroke-dashoffset:0;stroke-opacity:1"
         id="path4522" />
      <path
         d="m 135.56415,89.969542 -7.27677,17.230838 h -3.60406 l -7.24244,-17.230838 h 3.87865 l 5.45758,13.283538 5.04568,-13.283538 z"
         style="font-style:normal;font-variant:normal;font-weight:500;font-stretch:normal;font-family:'Maven Pro';-inkscape-font-specification:'Maven Pro Medium';vector-effect:none;fill:#999999;fill-opacity:1;stroke:none;stroke-width:0.22497475px;stroke-linecap:butt;stroke-linejoin:miter;stroke-miterlimit:4;stroke-dasharray:none;stroke-dashoffset:0;stroke-opacity:1"
         id="path4524" />
      <path
         d="m 145.94084,89.591974 q 2.81459,0 4.77108,1.372975 1.99082,1.338651 1.95649,4.359196 v 8.237845 q 0,2.33406 -2.05946,3.26082 -2.05946,0.89243 -5.86947,0.89243 -3.05487,0 -5.04568,-1.27 -1.99081,-1.27 -1.99081,-4.25622 0,-2.814599 1.61324,-4.221898 1.64757,-1.4073 4.63379,-1.4073 3.0892,0 5.14866,1.235678 v -1.64757 q 0,-3.501087 -4.2219,-3.501087 -1.51027,0 -3.02055,0.480542 -1.51027,0.446216 -2.50567,1.270001 v -3.363788 q 0.96108,-0.617839 2.78027,-1.029732 1.85352,-0.411892 3.81001,-0.411892 z m -0.78947,15.308676 q 2.16244,0 3.05487,-0.30892 0.89244,-0.30892 0.89244,-1.23568 v -3.32947 q -1.75055,-0.755132 -3.84433,-0.755132 -1.95649,0 -2.98622,0.686487 -0.99541,0.686485 -0.99541,2.059465 0,1.44162 1.1327,2.16243 1.16703,0.72082 2.74595,0.72082 z"
         style="font-style:normal;font-variant:normal;font-weight:500;font-stretch:normal;font-family:'Maven Pro';-inkscape-font-specification:'Maven Pro Medium';vector-effect:none;fill:#999999;fill-opacity:1;stroke:none;stroke-width:0.22497475px;stroke-linecap:butt;stroke-linejoin:miter;stroke-miterlimit:4;stroke-dasharray:none;stroke-dashoffset:0;stroke-opacity:1"
         id="path4526" />
    </g>
    <text
       xml:space="preserve"
       style="font-style:normal;font-weight:normal;font-size:15.98103333px;line-height:1.25;font-family:sans-serif;letter-spacing:0px;word-spacing:0px;fill:#999999;fill-opacity:1;stroke:none;stroke-width:0.22345309px;font-variant-east_asian:normal;opacity:1;vector-effect:none;stroke-linecap:butt;stroke-linejoin:miter;stroke-miterlimit:4;stroke-dasharray:none;stroke-dashoffset:0;stroke-opacity:1;"
       x="54.221848"
       y="120.16438"
       id="text4531"><tspan
         sodipodi:role="line"
         id="tspan4529"
         x="54.221848"
         y="120.16438"
         style="font-style:normal;font-variant:normal;font-weight:500;font-stretch:normal;font-family:'Maven Pro';-inkscape-font-specification:'Maven Pro Medium';stroke-width:0.22345309px;font-variant-east_asian:normal;vector-effect:none;fill:#999999;fill-opacity:1;stroke:none;stroke-linecap:butt;stroke-linejoin:miter;stroke-miterlimit:4;stroke-dasharray:none;stroke-dashoffset:0;stroke-opacity:1;">foundation</tspan></text>
  </g>
</svg>
