<?xml version="1.0" encoding="UTF-8" standalone="no"?>
<!-- Created with Inkscape (http://www.inkscape.org/) -->

<svg
   xmlns:dc="http://purl.org/dc/elements/1.1/"
   xmlns:cc="http://creativecommons.org/ns#"
   xmlns:rdf="http://www.w3.org/1999/02/22-rdf-syntax-ns#"
   xmlns:svg="http://www.w3.org/2000/svg"
   xmlns="http://www.w3.org/2000/svg"
   xmlns:sodipodi="http://sodipodi.sourceforge.net/DTD/sodipodi-0.dtd"
   xmlns:inkscape="http://www.inkscape.org/namespaces/inkscape"
   width="210mm"
   height="297mm"
   viewBox="0 0 210 297"
   version="1.1"
   id="svg8"
   inkscape:version="0.92.1 r15371"
   sodipodi:docname="colava.svg"
   inkscape:export-filename="/home/drcode/colava/colava.png"
   inkscape:export-xdpi="96"
   inkscape:export-ydpi="96">
  <defs
     id="defs2" />
  <sodipodi:namedview
     id="base"
     pagecolor="#ffffff"
     bordercolor="#666666"
     borderopacity="1.0"
     inkscape:pageopacity="0.0"
     inkscape:pageshadow="2"
     inkscape:zoom="2"
     inkscape:cx="219.88897"
     inkscape:cy="643.50317"
     inkscape:document-units="mm"
     inkscape:current-layer="layer1"
     showgrid="false"
     inkscape:window-width="4800"
     inkscape:window-height="3136"
     inkscape:window-x="0"
     inkscape:window-y="32"
     inkscape:window-maximized="1" />
  <metadata
     id="metadata5">
    <rdf:RDF>
      <cc:Work
         rdf:about="">
        <dc:format>image/svg+xml</dc:format>
        <dc:type
           rdf:resource="http://purl.org/dc/dcmitype/StillImage" />
        <dc:title></dc:title>
      </cc:Work>
    </rdf:RDF>
  </metadata>
  <g
     inkscape:label="Layer 1"
     inkscape:groupmode="layer"
     id="layer1">
    <rect
       style="opacity:1;vector-effect:none;fill:#ccffaa;fill-opacity:1;stroke:none;stroke-width:0.22345309px;stroke-linecap:butt;stroke-linejoin:miter;stroke-miterlimit:4;stroke-dasharray:none;stroke-dashoffset:0;stroke-opacity:1"
       id="rect4563"
       width="159.14688"
       height="119.0625"
       x="26.19375"
       y="64.695831" />
    <path
       style="color:#000000;font-style:normal;font-variant:normal;font-weight:normal;font-stretch:normal;font-size:medium;line-height:normal;font-family:sans-serif;font-variant-ligatures:normal;font-variant-position:normal;font-variant-caps:normal;font-variant-numeric:normal;font-variant-alternates:normal;font-feature-settings:normal;text-indent:0;text-align:start;text-decoration:none;text-decoration-line:none;text-decoration-style:solid;text-decoration-color:#000000;letter-spacing:normal;word-spacing:normal;text-transform:none;writing-mode:lr-tb;direction:ltr;text-orientation:mixed;dominant-baseline:auto;baseline-shift:baseline;text-anchor:start;white-space:normal;shape-padding:0;clip-rule:nonzero;display:inline;overflow:visible;visibility:visible;opacity:1;isolation:auto;mix-blend-mode:normal;color-interpolation:sRGB;color-interpolation-filters:linearRGB;solid-color:#000000;solid-opacity:1;vector-effect:none;fill:#71b671;fill-opacity:1;fill-rule:nonzero;stroke:none;stroke-width:0.99999994px;stroke-linecap:butt;stroke-linejoin:miter;stroke-miterlimit:4;stroke-dasharray:none;stroke-dashoffset:0;stroke-opacity:1;color-rendering:auto;image-rendering:auto;shape-rendering:auto;text-rendering:auto;enable-background:accumulate"
       d="M 395.89453 306.61133 C 333.48752 306.98958 274.97974 315.9733 244.50977 328.06445 C 233.39552 332.47483 223.59919 337.60232 215.12305 343.32422 C 221.79671 340.22101 229.38077 338.66602 237.87695 338.66602 C 248.24495 338.66602 258.10131 340.58578 267.44531 344.42578 L 267.44531 362.47461 C 257.71731 358.37861 248.81986 356.33008 240.75586 356.33008 C 230.64386 356.33008 223.09161 358.88977 218.09961 364.00977 C 213.10761 369.00177 210.61328 377.00177 210.61328 388.00977 C 210.61328 399.52977 213.0442 407.97947 217.9082 413.35547 C 222.7722 418.60347 230.58003 421.22656 241.33203 421.22656 C 250.03603 421.22656 258.80472 419.11462 267.63672 414.89062 L 267.63672 432.93945 C 258.42072 437.03545 248.56436 439.08203 238.06836 439.08203 C 224.50036 439.08203 213.17198 435.17909 204.08398 427.37109 C 195.12398 419.56309 190.64453 406.95485 190.64453 389.54688 C 190.64453 375.65797 193.30983 364.78211 198.61523 356.89062 C 178.29797 377.46088 171.53137 403.22281 179.83984 431.00391 C 189.47306 463.21453 216.33485 472.21491 229.33984 474.71289 L 224.19336 476.92969 C 184.87551 496.06135 156.9045 555.1271 190.77734 622.64844 C 212.08569 665.12398 231.74805 693.70703 231.74805 693.70703 L 243.05664 693.26367 L 240.25781 689.07812 C 240.25781 689.07812 220.8028 660.04639 199.77539 618.13086 C 167.75326 554.29868 194.74307 502.45566 228.60156 485.98047 L 233.23047 483.89648 L 229.39062 474.69141 L 229.36523 474.70312 L 223.38086 460.46289 L 245.07617 460.46289 L 275.60547 534.76758 L 303.82812 460.46289 L 324.75586 460.46289 L 284.05273 556.84766 L 263.89258 556.84766 L 233.24023 483.91797 C 227.31498 500.50583 217.94563 538.77509 244.78711 565.95508 C 272.27107 593.78561 343.13248 583.14058 397.58594 558.0293 C 391.52333 559.15936 384.35935 559.72852 376.08008 559.72852 C 364.68808 559.72852 355.28142 557.35905 347.85742 552.62305 C 340.43342 547.88705 336.7207 539.95241 336.7207 528.81641 C 336.7207 518.32041 339.72814 510.44722 345.74414 505.19922 C 351.88814 499.95122 360.52806 497.32813 371.66406 497.32812 C 383.18406 497.32813 392.78484 499.63223 400.46484 504.24023 L 400.46484 495.02344 C 400.46484 481.96744 392.59166 475.43945 376.84766 475.43945 C 371.21566 475.43945 365.58512 476.33495 359.95312 478.12695 C 354.32114 479.79095 349.6495 482.16042 345.9375 485.23242 L 345.9375 466.41602 C 349.5215 464.11202 354.70428 462.19225 361.48828 460.65625 C 368.40028 459.12025 375.50478 458.35156 382.80078 458.35156 C 393.29678 458.35156 402.19228 460.91125 409.48828 466.03125 C 416.91228 471.02325 420.55964 479.15202 420.43164 490.41602 L 420.43164 536.49609 C 420.43164 540.9642 419.41249 544.73514 417.38867 547.82031 C 424.86246 543.5181 431.7928 538.95793 437.95703 534.21484 C 476.20965 504.7812 491.5863 465.27328 515.38281 436.08203 C 507.9079 438.71957 497.85362 440.04297 485.20508 440.04297 C 473.81308 440.04297 464.40642 437.67545 456.98242 432.93945 C 449.55842 428.20345 445.8457 420.26686 445.8457 409.13086 C 445.8457 398.63486 448.85314 390.76167 454.86914 385.51367 C 461.01314 380.26567 469.65306 377.64258 480.78906 377.64258 C 492.30906 377.64258 501.90984 379.94669 509.58984 384.55469 L 509.58984 375.33789 C 509.58984 362.28189 501.71666 355.75391 485.97266 355.75391 C 480.34066 355.75391 474.71012 356.65136 469.07812 358.44336 C 463.44615 360.10736 458.7745 362.47488 455.0625 365.54688 L 455.0625 346.73047 C 458.6465 344.42647 463.82928 342.5067 470.61328 340.9707 C 477.52528 339.4347 484.62978 338.66602 491.92578 338.66602 C 502.42178 338.66602 511.31728 341.2257 518.61328 346.3457 C 526.03728 351.3377 529.68464 359.46647 529.55664 370.73047 L 529.55664 416.81055 C 529.55664 418.47703 529.41434 420.04543 529.13281 421.51953 C 534.16146 417.02815 539.6443 412.98784 545.77539 409.53125 C 591.88377 383.53626 646.69948 393.8113 657.35352 399.67188 C 657.35352 399.67188 632.98826 352.96737 537.22656 323.93164 C 502.75378 313.47921 462.18839 308.32296 421.85547 306.98047 L 421.85547 437.16211 L 401.88672 437.16211 L 401.88672 306.62109 C 399.88838 306.61546 397.88572 306.59926 395.89453 306.61133 z M 331.97461 338.47461 C 347.46261 338.47461 359.10997 342.82725 366.91797 351.53125 C 374.72597 360.10725 378.63086 372.5867 378.63086 388.9707 C 378.63086 405.3547 374.59916 417.96292 366.53516 426.79492 C 358.47116 435.62692 347.01402 440.04297 332.16602 440.04297 C 316.80602 440.04297 305.22206 435.69033 297.41406 426.98633 C 289.73406 418.28233 285.89453 405.6107 285.89453 388.9707 C 285.89453 355.3067 301.25461 338.47461 331.97461 338.47461 z M 331.97461 355.37109 C 322.63061 355.37109 315.91045 358.24977 311.81445 364.00977 C 307.84645 369.64177 305.86328 377.9627 305.86328 388.9707 C 305.86328 399.9787 307.90986 408.42645 312.00586 414.31445 C 316.22986 420.07445 322.88661 422.95508 331.97461 422.95508 C 349.63861 422.95508 358.4707 411.6267 358.4707 388.9707 C 358.4707 377.7067 356.35877 369.32236 352.13477 363.81836 C 347.91077 358.18636 341.19061 355.37109 331.97461 355.37109 z M 488.08594 392.81055 C 480.78994 392.81055 475.22086 394.09039 471.38086 396.65039 C 467.66886 399.21039 465.81445 403.04992 465.81445 408.16992 C 465.81445 413.54592 467.92639 417.57765 472.15039 420.26562 C 476.50239 422.95362 481.62177 424.29883 487.50977 424.29883 C 495.57377 424.29883 501.26966 423.72231 504.59766 422.57031 C 507.92566 421.41831 509.58984 419.1142 509.58984 415.6582 L 509.58984 397.03516 C 503.06184 394.21916 495.89394 392.81055 488.08594 392.81055 z M 378.96094 512.49609 C 371.66494 512.49609 366.09586 513.77594 362.25586 516.33594 C 358.54386 518.89594 356.68945 522.73547 356.68945 527.85547 C 356.68945 533.23147 358.80139 537.26317 363.02539 539.95117 C 367.37739 542.63917 372.49677 543.98438 378.38477 543.98438 C 386.44877 543.98438 392.14466 543.40786 395.47266 542.25586 C 398.80066 541.10386 400.46484 538.79975 400.46484 535.34375 L 400.46484 516.71875 C 393.93684 513.90275 386.76894 512.49609 378.96094 512.49609 z "
       transform="scale(0.26458333)"
       id="path4505" />
  </g>
</svg>
